<?xml version="1.0" encoding="UTF-8"?>
<svg xmlns="http://www.w3.org/2000/svg" height="328" width="328" class="pyqrcode"><path transform="scale(8)" stroke="#000" class="pyqrline" d="M4 4.5h7m1 0h1m1 0h1m1 0h4m2 0h2m1 0h1m1 0h1m2 0h7m-33 1h1m5 0h1m1 0h2m1 0h5m4 0h3m3 0h1m5 0h1m-33 1h1m1 0h3m1 0h1m1 0h1m1 0h1m1 0h1m1 0h2m3 0h1m1 0h2m3 0h1m1 0h3m1 0h1m-33 1h1m1 0h3m1 0h1m2 0h2m2 0h1m4 0h1m3 0h1m1 0h1m1 0h1m1 0h3m1 0h1m-33 1h1m1 0h3m1 0h1m2 0h2m2 0h3m1 0h2m1 0h2m2 0h1m1 0h1m1 0h3m1 0h1m-33 1h1m5 0h1m1 0h3m4 0h1m1 0h1m4 0h1m3 0h1m5 0h1m-33 1h7m1 0h1m1 0h1m1 0h1m1 0h1m1 0h1m1 0h1m1 0h1m1 0h1m1 0h1m1 0h7m-25 1h1m1 0h1m1 0h2m3 0h2m1 0h3m-21 1h3m1 0h1m1 0h2m2 0h1m4 0h1m1 0h2m4 0h3m2 0h3m-32 1h1m1 0h2m2 0h3m4 0h1m2 0h1m2 0h1m1 0h3m1 0h2m1 0h1m2 0h1m-33 1h1m4 0h3m4 0h4m2 0h1m1 0h1m1 0h1m5 0h1m2 0h1m-27 1h1m7 0h2m1 0h2m1 0h1m3 0h1m2 0h1m2 0h4m-33 1h1m5 0h4m1 0h1m2 0h1m4 0h1m1 0h2m1 0h2m2 0h1m-29 1h1m3 0h1m4 0h1m1 0h3m2 0h1m2 0h3m1 0h1m2 0h2m2 0h3m-28 1h2m1 0h5m1 0h3m1 0h1m2 0h2m2 0h1m3 0h1m1 0h1m-32 1h4m3 0h3m1 0h1m1 0h2m1 0h3m1 0h3m2 0h2m3 0h1m-31 1h1m1 0h1m2 0h3m5 0h4m1 0h2m2 0h1m1 0h1m2 0h3m-29 1h2m1 0h1m2 0h1m2 0h4m1 0h2m1 0h3m2 0h1m2 0h1m2 0h4m-33 1h1m1 0h1m2 0h2m1 0h1m1 0h2m4 0h1m1 0h1m1 0h1m6 0h3m-27 1h2m6 0h1m2 0h3m4 0h3m1 0h3m1 0h3m-32 1h2m3 0h2m1 0h1m2 0h2m3 0h3m3 0h1m5 0h2m1 0h1m-32 1h1m2 0h2m2 0h1m5 0h2m2 0h1m1 0h1m2 0h5m2 0h2m1 0h1m-33 1h1m1 0h1m1 0h3m5 0h3m5 0h2m3 0h2m1 0h1m-29 1h1m1 0h1m1 0h2m1 0h1m2 0h1m2 0h1m3 0h6m1 0h1m1 0h1m1 0h5m-33 1h1m1 0h1m1 0h1m1 0h1m1 0h2m1 0h5m2 0h1m1 0h1m3 0h5m-21 1h5m1 0h4m1 0h1m1 0h4m3 0h2m1 0h2m-33 1h7m4 0h1m3 0h2m1 0h1m2 0h1m1 0h2m1 0h1m1 0h2m1 0h1m-32 1h1m5 0h1m5 0h3m2 0h1m3 0h2m1 0h1m3 0h5m-33 1h1m1 0h3m1 0h1m1 0h2m1 0h1m1 0h7m1 0h1m2 0h6m2 0h1m-33 1h1m1 0h3m1 0h1m1 0h1m1 0h1m1 0h1m4 0h1m1 0h1m2 0h1m1 0h2m2 0h1m1 0h1m1 0h1m-33 1h1m1 0h3m1 0h1m1 0h2m1 0h7m3 0h1m2 0h1m1 0h1m2 0h1m-30 1h1m5 0h1m2 0h2m2 0h3m1 0h3m2 0h1m2 0h1m2 0h1m1 0h1m-31 1h7m6 0h2m3 0h1m2 0h1m1 0h4m2 0h1m1 0h1"/></svg>
